<?xml version="1.0" standalone="no"?>
<!DOCTYPE svg PUBLIC "-//W3C//DTD SVG 20010904//EN"
 "http://www.w3.org/TR/2001/REC-SVG-20010904/DTD/svg10.dtd">
<svg version="1.0" xmlns="http://www.w3.org/2000/svg"
 width="700.000000pt" height="700.000000pt" viewBox="0 0 700.000000 700.000000"
 preserveAspectRatio="xMidYMid meet">
<metadata>
Created by potrace 1.11, written by Peter Selinger 2001-2013
</metadata>
<g transform="translate(0.000000,700.000000) scale(0.100000,-0.100000)"
fill="#000000" stroke="none">
<path d="M1910 6725 c-53 -24 -89 -64 -105 -117 -14 -49 -13 -79 8 -130 7 -16
337 -354 740 -757 l728 -728 -522 -521 -522 -521 -725 725 c-399 399 -738 732
-753 739 -152 79 -314 -77 -249 -240 6 -17 319 -337 733 -751 397 -397 723
-726 724 -731 2 -4 -33 -46 -78 -93 -119 -124 -151 -195 -144 -325 10 -223
235 -388 452 -331 60 16 110 41 143 72 l25 23 495 -492 c357 -355 511 -502
553 -526 146 -85 330 -123 487 -99 30 5 63 10 72 11 10 1 67 -47 140 -119 181
-178 279 -238 445 -273 77 -17 202 -20 279 -8 48 8 159 44 204 67 46 24 48 23
100 -34 347 -377 563 -882 569 -1331 l1 -50 368 0 367 0 -1 70 c-1 107 -14
255 -29 335 -3 14 -7 41 -10 60 -10 65 -65 279 -91 352 -14 40 -26 78 -28 83
-12 41 -107 257 -138 315 -72 131 -95 171 -157 265 -77 117 -236 322 -323 413
l-60 65 25 56 c93 204 97 446 9 623 -14 29 -26 55 -27 58 -3 22 -90 126 -195
233 -69 71 -125 134 -126 140 0 7 4 23 8 36 24 67 10 289 -23 376 -64 170 -90
201 -611 721 l-476 477 28 36 c72 90 96 221 60 333 -51 162 -217 273 -382 255
-108 -12 -165 -44 -279 -156 l-78 -77 -718 718 c-395 396 -732 728 -750 739
-43 27 -119 34 -163 14z"/>
</g>
</svg>
